<svg xmlns="http://www.w3.org/2000/svg" xmlns:xlink="http://www.w3.org/1999/xlink" width="1920" zoomAndPan="magnify" viewBox="0 0 1440 809.999993" height="1080" preserveAspectRatio="xMidYMid meet" version="1.0"><defs><clipPath id="a4eddfa4cc"><path d="M 604.5 289.5 L 835.5 289.5 L 835.5 520 L 604.5 520 Z M 604.5 289.5 " clip-rule="nonzero"/></clipPath><clipPath id="8491eeef2b"><path d="M 672 334 L 772 334 L 772 520.5 L 672 520.5 Z M 672 334 " clip-rule="nonzero"/></clipPath></defs><rect x="-144" width="1728" fill="#ffffff" y="-80.999999" height="971.999992" fill-opacity="1"/><rect x="-144" width="1728" fill="#ffffff" y="-80.999999" height="971.999992" fill-opacity="1"/><g clip-path="url(#a4eddfa4cc)"><path fill="#100f0d" d="M 835.5 405 C 835.5 341.210938 783.789062 289.5 720 289.5 C 656.210938 289.5 604.5 341.210938 604.5 405 C 604.5 462.648438 646.738281 510.433594 701.953125 519.097656 L 701.953125 438.386719 L 672.625 438.386719 L 672.625 405 L 701.953125 405 L 701.953125 379.554688 C 701.953125 350.605469 719.195312 334.617188 745.578125 334.617188 C 758.214844 334.617188 771.433594 336.875 771.433594 336.875 L 771.433594 365.296875 L 756.871094 365.296875 C 742.523438 365.296875 738.046875 374.199219 738.046875 383.335938 L 738.046875 405 L 770.078125 405 L 764.960938 438.386719 L 738.046875 438.386719 L 738.046875 519.097656 C 793.261719 510.433594 835.5 462.648438 835.5 405 " fill-opacity="1" fill-rule="nonzero"/></g><g clip-path="url(#8491eeef2b)"><path fill="#ffffff" d="M 764.960938 438.386719 L 770.078125 405 L 738.046875 405 L 738.046875 383.335938 C 738.046875 374.199219 742.523438 365.296875 756.871094 365.296875 L 771.433594 365.296875 L 771.433594 336.875 C 771.433594 336.875 758.214844 334.617188 745.578125 334.617188 C 719.195312 334.617188 701.953125 350.605469 701.953125 379.554688 L 701.953125 405 L 672.625 405 L 672.625 438.386719 L 701.953125 438.386719 L 701.953125 519.097656 C 707.832031 520.019531 713.859375 520.5 720 520.5 C 726.140625 520.5 732.167969 520.019531 738.046875 519.097656 L 738.046875 438.386719 L 764.960938 438.386719 " fill-opacity="1" fill-rule="nonzero"/></g></svg>